<svg width="52" height="52" viewBox="0 0 52 52" fill="none" xmlns="http://www.w3.org/2000/svg">
<g filter="url(#filter0_dii_2015_77)">
<path d="M2 11C2 5.47715 6.47715 1 12 1H40C45.5229 1 50 5.47715 50 11V39C50 44.5229 45.5228 49 40 49H12C6.47715 49 2 44.5228 2 39V11Z" fill="#E68D19"/>
<path d="M12 2H40C44.9706 2 49 6.02944 49 11V39C49 43.9706 44.9706 48 40 48H12C7.02944 48 3 43.9706 3 39V11C3 6.02944 7.02944 2 12 2Z" stroke="url(#paint0_linear_2015_77)" stroke-width="2"/>
<path d="M25.9995 25.0001H26.0095M29.535 28.5357C24.8488 33.222 19.4669 35.438 17.5142 33.4854C15.5616 31.5328 17.7777 26.1509 22.464 21.4646C27.1503 16.7783 32.5322 14.5622 34.4848 16.5149C36.4374 18.4675 34.2213 23.8494 29.535 28.5357ZM29.535 21.4644C34.2213 26.1507 36.4374 31.5326 34.4848 33.4852C32.5321 35.4379 27.1502 33.2218 22.4639 28.5355C17.7776 23.8492 15.5616 18.4673 17.5142 16.5147C19.4668 14.5621 24.8487 16.7781 29.535 21.4644ZM26.4995 25.0001C26.4995 25.2763 26.2757 25.5001 25.9995 25.5001C25.7234 25.5001 25.4995 25.2763 25.4995 25.0001C25.4995 24.724 25.7234 24.5001 25.9995 24.5001C26.2757 24.5001 26.4995 24.724 26.4995 25.0001Z" stroke="white" stroke-width="2" stroke-linecap="round" stroke-linejoin="round"/>
</g>
<defs>
<filter id="filter0_dii_2015_77" x="0" y="0" width="52" height="52" filterUnits="userSpaceOnUse" color-interpolation-filters="sRGB">
<feFlood flood-opacity="0" result="BackgroundImageFix"/>
<feColorMatrix in="SourceAlpha" type="matrix" values="0 0 0 0 0 0 0 0 0 0 0 0 0 0 0 0 0 0 127 0" result="hardAlpha"/>
<feOffset dy="1"/>
<feGaussianBlur stdDeviation="1"/>
<feColorMatrix type="matrix" values="0 0 0 0 0.0392157 0 0 0 0 0.0496732 0 0 0 0 0.0705882 0 0 0 0.05 0"/>
<feBlend mode="normal" in2="BackgroundImageFix" result="effect1_dropShadow_2015_77"/>
<feBlend mode="normal" in="SourceGraphic" in2="effect1_dropShadow_2015_77" result="shape"/>
<feColorMatrix in="SourceAlpha" type="matrix" values="0 0 0 0 0 0 0 0 0 0 0 0 0 0 0 0 0 0 127 0" result="hardAlpha"/>
<feOffset dy="-2"/>
<feComposite in2="hardAlpha" operator="arithmetic" k2="-1" k3="1"/>
<feColorMatrix type="matrix" values="0 0 0 0 0.0392157 0 0 0 0 0.0496732 0 0 0 0 0.0705882 0 0 0 0.05 0"/>
<feBlend mode="normal" in2="shape" result="effect2_innerShadow_2015_77"/>
<feColorMatrix in="SourceAlpha" type="matrix" values="0 0 0 0 0 0 0 0 0 0 0 0 0 0 0 0 0 0 127 0" result="hardAlpha"/>
<feMorphology radius="1" operator="erode" in="SourceAlpha" result="effect3_innerShadow_2015_77"/>
<feOffset/>
<feComposite in2="hardAlpha" operator="arithmetic" k2="-1" k3="1"/>
<feColorMatrix type="matrix" values="0 0 0 0 0.0392157 0 0 0 0 0.0496732 0 0 0 0 0.0705882 0 0 0 0.18 0"/>
<feBlend mode="normal" in2="effect2_innerShadow_2015_77" result="effect3_innerShadow_2015_77"/>
</filter>
<linearGradient id="paint0_linear_2015_77" x1="26" y1="1" x2="26" y2="49" gradientUnits="userSpaceOnUse">
<stop stop-color="white" stop-opacity="0.12"/>
<stop offset="1" stop-color="white" stop-opacity="0"/>
</linearGradient>
</defs>
</svg>
