<svg width="12" height="16" viewBox="0 0 12 16" fill="none" xmlns="http://www.w3.org/2000/svg">
<path d="M11.61 8.14053C10.4325 5.08053 6.24 4.91553 7.2525 0.468035C7.3275 0.138035 6.975 -0.116965 6.69 0.055535C3.9675 1.66053 2.01 4.87803 3.6525 9.09303C3.7875 9.43803 3.3825 9.76053 3.09 9.53553C1.7325 8.50803 1.59 7.03053 1.71 5.97303C1.755 5.58303 1.245 5.39553 1.0275 5.71803C0.5175 6.49803 0 7.75803 0 9.65553C0.285 13.8555 3.8325 15.1455 5.1075 15.3105C6.93 15.543 8.9025 15.2055 10.32 13.908C11.88 12.4605 12.45 10.1505 11.61 8.14053ZM4.65 11.913C5.73 11.6505 6.285 10.8705 6.435 10.1805C6.6825 9.10803 5.715 8.05803 6.3675 6.36303C6.615 7.76553 8.82 8.64303 8.82 10.173C8.88 12.0705 6.825 13.698 4.65 11.913Z" fill="#E68D19"/>
</svg>
